<?xml version="1.0" standalone="no"?>
<!DOCTYPE svg PUBLIC "-//W3C//DTD SVG 20010904//EN"
 "http://www.w3.org/TR/2001/REC-SVG-20010904/DTD/svg10.dtd">
<svg version="1.0" xmlns="http://www.w3.org/2000/svg"
 width="1061.000000pt" height="1061.000000pt" viewBox="0 0 1061.000000 1061.000000"
 preserveAspectRatio="xMidYMid meet">
<metadata>
Created by potrace 1.11, written by Peter Selinger 2001-2013
</metadata>
<g transform="translate(0.000000,1061.000000) scale(0.100000,-0.100000)"
fill="#000000" stroke="none">
<path d="M10527 7594 c-1 -1 -56 -5 -122 -8 -66 -4 -167 -9 -225 -12 -102 -5
-150 -10 -155 -16 -1 -2 -32 -61 -68 -133 -36 -71 -102 -200 -146 -285 -44
-85 -121 -236 -171 -335 -51 -99 -95 -183 -99 -187 -3 -4 -71 91 -151 210 -80
119 -147 219 -150 222 -3 3 -72 105 -155 228 l-150 224 -115 -7 c-63 -3 -144
-8 -180 -10 -36 -2 -112 -6 -169 -10 -58 -3 -107 -7 -109 -10 -3 -3 23 -47 58
-98 127 -184 168 -245 272 -397 58 -85 218 -321 357 -524 209 -307 251 -375
252 -405 1 -20 2 -49 4 -66 1 -16 6 -91 10 -165 11 -211 13 -248 20 -355 14
-241 17 -280 21 -286 2 -3 20 -5 41 -3 21 2 94 6 163 10 69 3 139 8 155 9 17
2 59 3 93 4 l64 1 -6 103 c-4 56 -8 140 -11 187 -7 127 -15 255 -20 350 -17
299 -19 263 18 333 19 34 59 109 89 167 31 58 79 150 109 205 29 55 70 134 92
175 21 41 58 111 81 155 23 44 75 143 116 220 40 77 90 172 110 210 105 197
150 285 150 293 0 8 -66 13 -73 6z"/>
<path d="M7378 7415 c-2 -2 -61 -6 -133 -10 -125 -6 -170 -9 -335 -20 -41 -2
-133 -7 -205 -11 -71 -4 -139 -8 -150 -9 -11 -1 -35 -3 -53 -4 l-32 -1 5 -102
c3 -57 7 -134 9 -173 3 -38 7 -115 11 -170 3 -55 8 -145 11 -200 3 -55 7 -129
10 -165 2 -36 6 -114 9 -175 3 -60 7 -135 10 -165 3 -30 7 -109 10 -175 3 -66
7 -149 10 -185 6 -76 12 -182 20 -335 4 -60 8 -135 10 -165 1 -30 6 -116 10
-190 6 -123 16 -167 34 -156 3 2 60 7 126 11 66 4 147 8 180 10 33 2 110 6
170 10 61 3 148 8 195 11 47 2 121 6 165 9 119 6 241 15 262 19 10 2 40 7 66
10 78 11 206 55 294 101 357 188 538 540 535 1040 -2 389 -114 704 -327 918
-128 129 -317 224 -520 262 -38 7 -391 16 -397 10z m241 -455 c142 -26 288
-125 360 -244 36 -60 86 -196 97 -261 3 -22 8 -43 9 -46 8 -12 19 -189 18
-276 -1 -50 -6 -115 -12 -145 -6 -29 -13 -62 -15 -73 -2 -11 -12 -40 -22 -65
-64 -160 -170 -264 -322 -315 -88 -30 -135 -35 -447 -51 -60 -3 -124 -7 -142
-9 -18 -2 -35 0 -38 4 -6 11 -14 90 -20 221 -2 58 -7 139 -10 180 -2 41 -7
125 -10 185 -3 61 -8 142 -10 180 -2 39 -7 115 -10 170 -3 55 -7 129 -10 165
-6 91 -17 287 -19 335 -1 37 1 39 29 40 105 5 330 17 332 19 7 7 187 -4 242
-14z"/>
<path d="M5966 7333 c-1 -1 -58 -5 -126 -9 -218 -11 -205 -8 -203 -35 0 -13 4
-87 8 -164 4 -77 9 -158 10 -180 7 -111 17 -268 20 -335 2 -41 6 -122 9 -180
3 -58 8 -141 11 -185 3 -44 8 -114 10 -155 14 -213 14 -406 0 -467 -36 -152
-105 -232 -240 -276 -77 -26 -129 -32 -265 -32 -111 1 -132 4 -188 27 -190 79
-248 196 -267 538 -6 107 -13 225 -20 350 -12 204 -15 241 -20 340 -3 58 -8
137 -11 175 -5 72 -9 148 -19 360 -7 154 -7 153 -53 149 -20 -1 -95 -6 -167
-9 -71 -4 -146 -9 -165 -10 -19 -2 -60 -4 -91 -4 -55 -1 -56 -1 -53 -28 2 -16
6 -75 9 -133 3 -58 7 -134 9 -170 7 -107 18 -290 21 -370 2 -41 6 -113 9 -160
3 -47 8 -132 11 -190 3 -58 7 -130 10 -160 3 -30 7 -111 10 -180 4 -69 8 -136
10 -150 2 -14 7 -45 10 -70 58 -413 300 -661 714 -730 84 -14 325 -18 421 -6
387 46 664 219 784 490 56 127 70 214 70 431 0 183 -6 342 -19 485 -3 30 -7
105 -10 165 -3 61 -7 137 -9 170 -2 33 -7 114 -11 180 -4 66 -8 147 -10 180
-14 221 -18 303 -18 328 l1 28 -95 -3 c-52 -2 -96 -4 -97 -5z"/>
<path d="M3727 7203 c-1 0 -56 -4 -122 -8 -66 -3 -151 -8 -190 -10 -114 -7
-249 -15 -347 -20 -191 -10 -275 -15 -338 -20 -36 -3 -112 -7 -170 -10 -58 -3
-132 -8 -165 -10 -33 -2 -121 -7 -195 -11 -74 -3 -148 -8 -165 -9 -16 -2 -40
-3 -53 -4 -25 -1 -25 -1 -6 -291 4 -58 7 -114 8 -125 1 -16 8 -20 31 -18 17 0
93 4 170 8 77 3 160 8 185 10 185 14 309 19 316 13 3 -3 9 -87 19 -273 10
-185 17 -304 21 -365 2 -36 6 -105 9 -155 3 -49 7 -128 10 -175 2 -47 7 -125
10 -175 4 -82 8 -150 20 -350 3 -38 7 -122 11 -185 10 -185 11 -204 13 -218 1
-11 24 -13 119 -8 215 11 317 18 395 25 4 1 5 29 2 64 -3 34 -7 107 -10 162
-2 55 -7 134 -10 175 -2 41 -7 125 -10 185 -3 61 -8 133 -9 160 -2 28 -7 109
-11 180 -4 72 -8 155 -10 185 -2 30 -6 109 -10 174 -3 66 -8 136 -10 155 -5
52 -18 324 -19 405 -1 54 2 69 14 71 8 1 83 6 165 10 209 10 236 12 355 20 58
4 118 7 134 6 l28 -1 -7 142 c-4 79 -9 157 -10 173 -2 17 -3 51 -4 78 l-1 48
-81 -3 c-44 -2 -81 -4 -82 -5z"/>
<path d="M775 7084 c-44 -7 -90 -15 -102 -18 -13 -3 -33 -8 -44 -11 -144 -31
-312 -125 -413 -229 -131 -135 -185 -266 -186 -452 -1 -49 1 -98 4 -109 2 -11
9 -42 16 -70 13 -57 50 -135 88 -185 36 -47 119 -125 151 -141 14 -7 37 -21
51 -30 52 -34 260 -106 360 -124 213 -39 521 -109 578 -131 140 -55 202 -125
210 -236 4 -48 0 -67 -22 -113 -63 -128 -223 -196 -466 -197 -125 0 -209 19
-296 67 -106 60 -179 166 -191 280 l-6 57 -91 -6 c-95 -6 -262 -16 -356 -20
l-55 -3 2 -47 c7 -220 136 -443 328 -571 114 -75 288 -136 439 -152 89 -10
300 -10 386 0 418 47 703 240 800 542 29 91 36 268 14 370 -59 280 -308 469
-694 529 -19 3 -91 16 -160 30 -69 14 -141 28 -160 31 -86 14 -250 60 -306 85
-40 18 -71 41 -90 65 -26 35 -29 45 -29 119 0 71 3 86 27 122 68 104 176 150
361 152 104 1 195 -16 257 -48 82 -42 149 -139 165 -238 l7 -44 87 6 c47 4
140 9 206 12 66 4 134 7 150 9 17 2 38 3 48 4 13 1 17 7 13 19 -3 9 -7 41 -10
70 -9 78 -52 199 -97 268 -120 185 -324 302 -594 339 -88 13 -297 12 -380 -1z"/>
<path d="M9057 4724 c-1 -1 -65 -5 -142 -9 -77 -5 -160 -9 -185 -11 -25 -1
-62 -3 -82 -3 -31 -1 -40 -6 -53 -31 -21 -40 -64 -203 -70 -265 -3 -27 -7 -61
-10 -75 -6 -30 -7 -286 -1 -315 2 -11 7 -42 10 -70 25 -189 137 -443 255 -579
205 -233 476 -353 816 -360 172 -4 366 57 485 152 25 20 68 60 97 90 42 45 52
51 56 35 7 -25 36 -163 40 -190 2 -12 6 -25 9 -29 6 -5 150 -8 274 -5 l41 1 0
605 c0 333 -3 606 -6 606 -3 1 -216 2 -473 3 l-468 1 0 -188 0 -188 203 1
c111 1 223 1 249 1 l46 -1 -4 -32 c-9 -60 -45 -172 -71 -217 -58 -100 -128
-156 -247 -199 -62 -22 -87 -26 -201 -26 -159 -1 -226 17 -329 84 -89 58 -144
122 -196 225 -62 123 -91 256 -94 420 -4 212 49 424 135 546 l19 27 -51 -2
c-28 0 -51 -2 -52 -2z"/>
<path d="M8156 4673 c-1 -1 -58 -5 -127 -9 -68 -4 -133 -8 -144 -9 -11 -1 -29
-3 -40 -4 -20 -1 -20 -7 -18 -426 2 -234 1 -425 -2 -425 -3 0 -19 24 -35 53
-17 28 -63 104 -103 167 -146 230 -332 531 -352 566 l-20 36 -115 -6 c-121 -7
-233 -13 -365 -21 -44 -3 -132 -8 -195 -11 -63 -3 -135 -8 -160 -9 -25 -2 -55
-4 -67 -4 l-22 -1 1 -755 1 -755 29 -1 c15 0 109 0 208 0 99 0 191 0 204 0
l23 1 0 740 c0 407 3 743 5 746 5 4 98 -139 143 -218 6 -10 82 -133 170 -273
88 -140 165 -263 170 -273 17 -30 57 -94 100 -162 23 -36 110 -176 195 -312
119 -194 158 -248 174 -249 35 -1 388 -1 436 0 l45 1 -2 782 c-1 431 -2 795
-2 810 -1 27 -1 27 -67 25 -36 -1 -67 -3 -68 -4z"/>
<path d="M6088 4555 c-2 -1 -50 -5 -108 -9 -58 -3 -152 -9 -210 -12 -58 -4
-113 -6 -124 -6 -14 1 -17 -4 -12 -21 40 -138 54 -385 30 -522 -28 -156 -92
-304 -166 -385 -134 -146 -347 -210 -558 -166 -113 24 -194 68 -275 150 -98
99 -150 208 -190 401 -13 59 -12 300 1 370 20 114 25 106 -63 101 -43 -3 -134
-8 -203 -12 -69 -3 -138 -8 -155 -9 -16 -2 -40 -3 -52 -4 -19 -1 -22 -9 -29
-78 -29 -297 15 -565 130 -788 17 -33 34 -61 38 -63 5 -2 8 -8 8 -13 0 -19 85
-124 154 -192 130 -128 300 -219 491 -262 221 -51 508 -32 705 46 327 130 539
381 639 757 44 163 47 454 6 637 -8 38 -15 71 -15 71 0 3 -39 12 -42 9z"/>
<path d="M2797 4364 c-1 -1 -58 -5 -127 -9 -69 -4 -145 -8 -170 -10 -25 -1
-61 -3 -81 -4 l-36 -1 0 -640 0 -640 26 -1 c30 -1 1529 -1 1551 0 13 1 15 28
14 204 -1 111 -2 204 -3 207 0 3 -246 5 -546 5 l-545 0 0 446 0 446 -41 -1
c-22 -1 -41 -2 -42 -2z"/>
<path d="M1577 4293 c-1 -1 -63 -4 -137 -8 -74 -3 -142 -8 -151 -11 -13 -3 -9
-24 29 -132 72 -209 73 -212 54 -213 -113 -5 -547 0 -549 8 -2 5 21 76 50 158
30 83 50 153 45 156 -4 3 -23 4 -40 3 -108 -8 -217 -14 -313 -20 -60 -3 -113
-9 -117 -12 -3 -4 -18 -38 -32 -77 -38 -105 -63 -172 -191 -510 -195 -514
-215 -568 -210 -573 7 -7 485 -5 492 1 2 3 22 54 43 114 20 59 40 115 43 123
3 8 20 56 37 105 17 50 37 104 45 122 l14 31 415 0 415 0 10 -27 c17 -42 139
-406 147 -435 3 -14 11 -29 16 -32 8 -5 338 -9 472 -5 47 1 48 -6 -24 181 -56
146 -100 263 -131 350 -10 30 -23 64 -28 75 -5 11 -30 76 -56 145 -25 69 -76
206 -113 305 l-68 180 -83 0 c-45 0 -83 -1 -84 -2z"/>
</g>
</svg>
