<?xml version="1.0" standalone="no"?>
<!DOCTYPE svg PUBLIC "-//W3C//DTD SVG 20010904//EN"
 "http://www.w3.org/TR/2001/REC-SVG-20010904/DTD/svg10.dtd">
<svg version="1.0" xmlns="http://www.w3.org/2000/svg"
 width="16.000000pt" height="16.000000pt" viewBox="0 0 16.000000 16.000000"
 preserveAspectRatio="xMidYMid meet">
<metadata>
Created by potrace 1.11, written by Peter Selinger 2001-2013
</metadata>
<g transform="translate(0.000000,16.000000) scale(0.001841,-0.001841)"
fill="#000000" stroke="none">
<path d="M4285 8650 c-27 -16 -61 -35 -75 -43 -14 -7 -117 -67 -230 -132 -113
-65 -218 -126 -235 -135 -67 -39 -438 -253 -705 -408 -157 -91 -301 -174 -320
-184 -19 -11 -48 -27 -65 -37 -34 -20 -300 -174 -520 -301 -234 -135 -487
-281 -520 -300 -30 -17 -301 -175 -340 -198 -53 -31 -466 -268 -505 -290 -25
-14 -74 -42 -109 -64 -34 -21 -67 -38 -72 -38 -5 0 -9 -899 -9 -2180 0 -1314
4 -2180 9 -2180 5 0 58 -29 118 -64 59 -35 212 -123 338 -196 127 -73 336
-193 465 -268 129 -75 252 -145 272 -156 20 -12 135 -78 255 -147 120 -70 288
-167 373 -216 85 -50 232 -134 325 -188 94 -54 185 -107 203 -116 18 -10 38
-22 45 -27 7 -5 37 -23 67 -39 30 -17 123 -70 205 -118 83 -48 164 -95 180
-104 17 -9 41 -24 55 -32 14 -9 149 -87 300 -174 151 -87 289 -166 305 -175
17 -10 78 -46 138 -80 l107 -62 43 25 c23 14 58 34 77 45 19 10 76 43 125 72
50 29 105 61 123 71 117 67 181 104 292 168 120 70 493 285 555 321 46 27 275
158 550 318 138 79 270 156 295 170 25 13 86 49 135 78 50 29 200 116 335 193
135 77 250 145 257 151 7 5 14 10 17 10 2 0 44 23 93 51 112 65 144 84 191
110 20 12 69 40 107 63 39 22 81 46 95 53 14 7 32 17 40 23 25 17 342 200 346
200 3 0 22 12 44 26 l40 27 0 2171 0 2172 -42 22 c-24 12 -61 32 -83 45 -40
24 -273 159 -337 195 -18 11 -179 104 -358 208 -179 103 -338 195 -355 204
-16 9 -84 48 -150 86 -66 39 -140 83 -165 97 -25 13 -112 64 -195 112 -82 48
-168 97 -190 110 -22 12 -137 78 -255 147 -118 68 -235 136 -260 150 -25 14
-133 76 -240 138 -107 63 -208 121 -223 129 -16 9 -36 21 -46 26 -23 14 -215
126 -259 151 -21 12 -58 33 -83 47 -25 13 -63 36 -85 49 -21 14 -59 36 -84 50
-25 14 -87 49 -138 79 -148 85 -207 118 -212 118 -3 0 -27 -13 -55 -29z"/>
</g>
</svg>
